<?xml version="1.0" standalone="no"?>
<!DOCTYPE svg PUBLIC "-//W3C//DTD SVG 20010904//EN"
 "http://www.w3.org/TR/2001/REC-SVG-20010904/DTD/svg10.dtd">
<svg version="1.0" xmlns="http://www.w3.org/2000/svg"
 width="3120.000000pt" height="3120.000000pt" viewBox="0 0 3120.000000 3120.000000"
 preserveAspectRatio="xMidYMid meet">
<metadata>
Created by potrace 1.14, written by Peter Selinger 2001-2017
</metadata>
<g transform="translate(0.000000,3120.000000) scale(0.100000,-0.100000)"
fill="#000000" stroke="none">
<path d="M0 15600 l0 -15600 15600 0 15600 0 0 15600 0 15600 -15600 0 -15600
0 0 -15600z m17347 12445 c161 -53 204 -98 382 -392 402 -662 537 -870 716
-1113 98 -133 161 -199 750 -785 625 -622 734 -739 917 -981 507 -671 803
-1439 869 -2250 15 -190 6 -685 -15 -849 -36 -277 -73 -470 -137 -715 -151
-587 -456 -1250 -814 -1776 l-47 -69 6 50 c15 129 47 543 67 860 24 406 29
1063 10 1390 -105 1770 -625 2707 -1613 2907 -101 20 -142 23 -373 23 -143 0
-268 -3 -277 -7 -17 -7 -18 -205 -18 -3952 0 -4342 4 -4041 -61 -4306 -202
-818 -886 -1462 -1713 -1614 -593 -110 -1213 36 -1694 398 -454 342 -754 838
-849 1402 -25 151 -25 536 0 674 27 150 65 291 108 408 252 681 828 1195 1530
1366 227 55 272 58 877 63 l562 5 0 1114 0 1114 -432 0 c-662 -1 -923 -15
-1253 -71 -629 -106 -1297 -389 -1826 -776 -593 -432 -1076 -1012 -1390 -1668
-391 -819 -518 -1743 -363 -2644 294 -1709 1597 -3106 3284 -3520 368 -91 653
-124 1050 -124 307 0 464 12 743 59 869 147 1681 561 2321 1184 670 652 1111
1478 1270 2382 61 342 60 304 65 1678 l6 1265 618 3 618 2 -4 -1297 c-4 -1425
-2 -1374 -68 -1783 -220 -1359 -933 -2592 -2005 -3467 -1254 -1024 -2867
-1456 -4474 -1197 -1569 252 -2990 1190 -3848 2540 -481 757 -759 1561 -859
2484 -22 206 -25 832 -5 1035 46 469 131 874 272 1295 651 1953 2345 3414
4370 3769 382 68 585 81 1296 88 l612 6 5 2646 c4 1970 8 2659 17 2696 33 142
143 299 267 381 156 103 350 128 530 69z m7941 -19506 c52 -30 120 -90 149
-131 35 -52 29 -115 -17 -184 -19 -27 -152 -168 -297 -314 l-263 -265 228
-230 c343 -345 372 -382 372 -466 0 -38 -6 -47 -72 -113 -78 -77 -127 -106
-178 -106 -67 0 -78 10 -436 420 l-249 285 -5 -290 c-4 -252 -7 -294 -23 -322
-29 -54 -67 -68 -187 -68 -116 0 -153 13 -194 68 -21 28 -21 31 -21 822 0 786
0 794 21 822 35 49 87 67 189 67 72 0 99 -4 135 -22 76 -36 74 -31 80 -361 l5
-294 274 314 c150 173 288 327 305 343 64 58 114 65 184 25z m-10415 -14 c251
-73 460 -251 573 -488 60 -128 77 -211 77 -387 0 -135 -4 -168 -26 -252 -75
-285 -285 -527 -541 -623 -212 -80 -495 -67 -689 32 -230 116 -410 337 -478
588 -32 117 -32 343 -1 470 29 117 115 292 185 376 95 114 241 215 398 273
138 52 346 57 502 11z m-6428 -15 c75 -36 70 23 73 -852 2 -775 2 -789 -18
-828 -31 -61 -66 -75 -190 -75 -116 0 -153 13 -194 68 -21 28 -21 33 -24 810
-2 730 -1 784 15 816 23 45 57 69 113 81 64 13 177 3 225 -20z m2424 17 c54
-19 74 -54 78 -144 6 -103 -10 -152 -57 -175 -31 -16 -68 -18 -307 -18 l-273
0 0 -647 c-1 -584 -3 -653 -18 -698 -26 -74 -59 -90 -192 -90 -129 0 -163 12
-193 69 -22 41 -22 43 -25 704 l-3 662 -275 0 c-300 0 -318 3 -343 57 -17 38
-25 121 -17 177 9 57 40 95 86 106 59 14 1499 11 1539 -3z m1701 -10 c229 -67
408 -243 466 -457 21 -80 24 -252 5 -330 -19 -79 -73 -189 -120 -242 -23 -25
-41 -51 -41 -57 0 -5 38 -99 85 -207 105 -243 119 -287 104 -331 -23 -70 -168
-153 -267 -153 -99 0 -110 16 -253 358 -56 134 -66 152 -84 148 -11 -3 -98 -6
-192 -6 l-173 0 0 -187 c0 -214 -8 -245 -70 -275 -49 -24 -154 -33 -223 -18
-78 16 -113 47 -127 113 -7 36 -10 290 -8 802 3 696 4 752 21 782 22 41 52 61
108 73 24 5 195 7 379 6 271 -3 345 -6 390 -19z m5259 -5 c19 -9 44 -30 55
-45 21 -28 21 -40 24 -693 l3 -664 365 0 c398 0 415 -2 451 -56 28 -43 26
-212 -2 -250 -41 -54 -54 -55 -615 -52 -485 3 -517 4 -554 22 -27 14 -44 32
-57 60 -18 39 -19 83 -19 814 0 750 1 774 20 811 19 39 60 62 130 75 46 8 164
-4 199 -22z m2989 5 c56 -30 75 -89 70 -211 -4 -116 -20 -155 -78 -183 -31
-16 -78 -18 -457 -21 l-423 -4 0 -118 0 -119 293 -3 c315 -3 330 -6 369 -58
43 -59 43 -250 0 -310 -42 -57 -61 -60 -374 -60 l-288 0 0 -125 0 -125 423 0
c465 0 465 0 511 -63 31 -42 36 -216 8 -280 -39 -87 3 -82 -667 -82 -563 0
-592 1 -629 19 -28 14 -44 32 -58 62 -18 41 -18 77 -16 821 3 725 4 781 21
806 23 36 56 56 108 66 24 5 294 9 599 8 516 -2 557 -3 588 -20z m1754 -3 c15
-8 41 -31 58 -51 37 -45 725 -1463 735 -1515 9 -46 -15 -98 -61 -133 -62 -48
-155 -85 -211 -85 -80 0 -102 25 -200 228 l-83 172 -338 0 -338 0 -79 -165
c-94 -199 -126 -235 -204 -235 -62 0 -195 64 -241 117 -59 67 -66 51 326 863
271 563 357 733 386 762 63 63 173 82 250 42z m-16472 -6 c49 -25 31 -2 515
-653 l260 -350 5 467 c5 452 6 467 26 495 35 49 78 63 184 63 114 0 169 -20
197 -72 17 -31 18 -81 21 -783 2 -522 0 -765 -8 -801 -13 -63 -48 -98 -113
-115 -58 -14 -201 -7 -241 12 -19 9 -148 172 -388 491 -198 263 -364 480 -369
484 -5 3 -9 -164 -9 -413 0 -230 -5 -436 -10 -457 -22 -95 -67 -121 -210 -121
-121 0 -163 16 -193 75 -16 33 -17 88 -15 822 3 778 3 787 24 815 35 48 78 63
184 63 79 0 103 -4 140 -22z m8650 -3509 c91 -25 196 -79 253 -129 38 -34 42
-42 41 -81 -1 -56 -24 -100 -85 -161 -64 -64 -96 -65 -197 -4 -128 77 -253 82
-388 16 -120 -59 -196 -166 -210 -297 -20 -192 81 -351 264 -414 100 -34 273
-16 331 35 9 7 35 23 59 35 57 29 90 21 141 -34 79 -86 103 -175 60 -229 -52
-67 -235 -146 -384 -167 -267 -38 -600 135 -727 376 -67 128 -83 200 -83 365
1 132 3 152 28 225 57 164 157 287 307 376 77 45 204 93 290 108 77 14 212 5
300 -20z m1945 16 c196 -41 389 -195 486 -388 65 -128 87 -330 53 -495 -19
-96 -87 -238 -151 -317 -281 -346 -804 -340 -1084 12 -111 139 -159 280 -159
463 0 133 23 232 84 355 140 285 455 436 771 370z m3835 -4 c136 -8 165 -12
238 -39 170 -63 328 -203 402 -356 101 -210 90 -475 -27 -675 -51 -87 -172
-208 -258 -258 -144 -85 -280 -108 -605 -101 -214 4 -249 13 -273 66 -17 38
-23 1194 -7 1270 13 58 36 80 98 93 52 10 249 10 432 0z m-9788 -25 c97 -34
202 -108 254 -178 140 -190 133 -472 -17 -643 l-30 -33 77 -179 c42 -98 79
-197 82 -220 4 -39 1 -46 -34 -81 -41 -40 -133 -82 -182 -82 -15 0 -41 9 -58
19 -31 19 -72 102 -160 318 l-29 73 -157 0 -158 0 0 -152 c0 -135 -2 -157 -20
-186 -26 -42 -58 -54 -152 -54 -85 -1 -133 19 -155 63 -10 18 -13 172 -13 649
0 608 1 626 20 658 11 18 30 37 43 42 12 5 157 9 322 9 290 1 302 0 367 -23z
m2228 9 c40 -21 51 -45 57 -128 6 -87 -10 -141 -50 -171 -27 -20 -41 -21 -378
-24 l-349 -3 0 -100 0 -99 230 0 c264 0 291 -6 315 -64 19 -45 19 -166 1 -211
-24 -57 -37 -60 -301 -65 l-240 -5 0 -100 0 -100 350 -5 c367 -5 382 -7 406
-51 6 -12 13 -53 16 -92 6 -87 -10 -141 -50 -171 -28 -21 -37 -21 -500 -21
-458 0 -473 1 -507 21 -61 35 -61 30 -58 708 3 670 2 656 63 682 23 10 133 13
498 14 398 0 472 -2 497 -15z m5831 -1 c134 -39 262 -140 318 -252 96 -190 76
-410 -52 -571 l-34 -43 78 -182 c89 -204 96 -244 54 -290 -14 -15 -50 -39 -81
-53 -120 -55 -176 -39 -223 62 -15 33 -52 117 -82 188 l-53 127 -158 0 -157 0
-3 -165 c-3 -161 -4 -165 -28 -190 -46 -45 -202 -53 -263 -12 -15 10 -30 33
-36 54 -7 25 -11 253 -11 641 0 668 -1 660 62 687 51 22 593 21 669 -1z"/>
<path d="M14552 8115 c-79 -17 -140 -53 -215 -124 -184 -174 -193 -496 -20
-682 168 -181 399 -206 591 -65 68 50 126 125 154 198 46 123 41 301 -12 416
-59 126 -200 236 -334 261 -73 13 -84 13 -164 -4z"/>
<path d="M12102 7888 l3 -213 180 0 180 0 55 31 c75 42 105 95 104 184 0 71
-16 109 -61 152 -54 51 -86 58 -283 58 l-180 0 2 -212z"/>
<path d="M22392 7659 l-79 -164 155 -3 c85 -1 157 -1 159 1 2 2 -33 78 -77
167 l-80 164 -78 -165z"/>
<path d="M16465 4681 c-101 -27 -205 -116 -252 -216 -25 -54 -28 -70 -28 -170
0 -104 2 -114 32 -176 40 -80 111 -150 191 -187 83 -38 193 -38 278 1 77 36
154 113 191 192 25 54 28 70 28 170 0 98 -3 116 -27 167 -60 128 -186 218
-315 224 -38 2 -81 0 -98 -5z"/>
<path d="M20340 4299 l0 -370 143 3 c132 3 146 5 200 31 75 37 152 113 183
181 72 158 19 354 -125 457 -77 56 -132 69 -278 69 l-123 0 0 -371z"/>
<path d="M10330 4495 l0 -175 143 0 c158 0 204 13 245 65 50 63 49 169 -1 223
-49 53 -85 62 -242 62 l-145 0 0 -175z"/>
<path d="M18410 4496 l0 -176 143 0 c154 0 198 12 244 61 68 74 52 201 -34
259 -34 24 -45 25 -195 28 l-158 3 0 -175z"/>
</g>
</svg>
